<?xml version="1.0" standalone="no"?>
<!DOCTYPE svg PUBLIC "-//W3C//DTD SVG 20010904//EN"
 "http://www.w3.org/TR/2001/REC-SVG-20010904/DTD/svg10.dtd">
<svg version="1.0" xmlns="http://www.w3.org/2000/svg"
 width="380.000000pt" height="380.000000pt" viewBox="0 0 380.000000 380.000000"
 preserveAspectRatio="xMidYMid meet">

<g transform="translate(0.000000,380.000000) scale(0.100000,-0.100000)"
fill="#000000" stroke="none">
<path d="M710 1900 l0 -770 71 0 c143 0 139 -15 139 485 l0 405 205 0 c182 0
210 -2 259 -21 108 -40 193 -145 215 -263 6 -33 11 -169 11 -304 l0 -244 29
-29 c27 -27 35 -29 106 -29 l77 0 -4 328 c-5 357 -5 358 -73 492 -36 71 -144
177 -221 217 -104 55 -154 63 -391 63 l-213 0 0 180 c0 244 -8 260 -139 260
l-71 0 0 -770z"/>
<path d="M1982 1908 c4 -298 6 -328 26 -388 61 -186 208 -326 392 -375 71 -19
200 -19 273 0 176 46 317 175 386 353 25 66 25 71 29 400 l3 332 -71 0 c-73 0
-110 -14 -127 -48 -4 -9 -10 -145 -13 -302 -5 -281 -5 -286 -31 -340 -32 -67
-96 -133 -164 -168 -72 -37 -188 -42 -267 -12 -110 41 -195 145 -217 264 -6
33 -11 169 -11 304 l0 244 -29 29 c-27 27 -35 29 -106 29 l-77 0 4 -322z"/>
</g>
</svg>
